<?xml version="1.0" encoding="utf-8" standalone="no"?>
<!DOCTYPE svg PUBLIC "-//W3C//DTD SVG 1.1//EN"
  "http://www.w3.org/Graphics/SVG/1.1/DTD/svg11.dtd">
<!-- Created with matplotlib (https://matplotlib.org/) -->
<svg height="684.72pt" version="1.1" viewBox="0 0 1382.4 684.72" width="1382.4pt" xmlns="http://www.w3.org/2000/svg" xmlns:xlink="http://www.w3.org/1999/xlink">
 <defs>
  <style type="text/css">
*{stroke-linecap:butt;stroke-linejoin:round;}
  </style>
 </defs>
 <g id="figure_1">
  <g id="patch_1">
   <path d="M 0 684.72 
L 1382.4 684.72 
L 1382.4 0 
L 0 0 
z
" style="fill:#ffffff;"/>
  </g>
  <g id="axes_1">
   <g id="patch_2">
    <path d="M 172.8 609.4008 
L 1244.16 609.4008 
L 1244.16 82.1664 
L 172.8 82.1664 
z
" style="fill:#eaeaf2;"/>
   </g>
   <g id="matplotlib.axis_1">
    <g id="xtick_1">
     <g id="line2d_1">
      <path clip-path="url(#p5dae63c579)" d="M 256.554776 609.4008 
L 256.554776 82.1664 
" style="fill:none;stroke:#ffffff;stroke-linecap:round;"/>
     </g>
     <g id="text_1">
      <!-- 2013 -->
      <defs>
       <path d="M 19.1875 8.296875 
L 53.609375 8.296875 
L 53.609375 0 
L 7.328125 0 
L 7.328125 8.296875 
Q 12.9375 14.109375 22.625 23.890625 
Q 32.328125 33.6875 34.8125 36.53125 
Q 39.546875 41.84375 41.421875 45.53125 
Q 43.3125 49.21875 43.3125 52.78125 
Q 43.3125 58.59375 39.234375 62.25 
Q 35.15625 65.921875 28.609375 65.921875 
Q 23.96875 65.921875 18.8125 64.3125 
Q 13.671875 62.703125 7.8125 59.421875 
L 7.8125 69.390625 
Q 13.765625 71.78125 18.9375 73 
Q 24.125 74.21875 28.421875 74.21875 
Q 39.75 74.21875 46.484375 68.546875 
Q 53.21875 62.890625 53.21875 53.421875 
Q 53.21875 48.921875 51.53125 44.890625 
Q 49.859375 40.875 45.40625 35.40625 
Q 44.1875 33.984375 37.640625 27.21875 
Q 31.109375 20.453125 19.1875 8.296875 
z
" id="DejaVuSans-50"/>
       <path d="M 31.78125 66.40625 
Q 24.171875 66.40625 20.328125 58.90625 
Q 16.5 51.421875 16.5 36.375 
Q 16.5 21.390625 20.328125 13.890625 
Q 24.171875 6.390625 31.78125 6.390625 
Q 39.453125 6.390625 43.28125 13.890625 
Q 47.125 21.390625 47.125 36.375 
Q 47.125 51.421875 43.28125 58.90625 
Q 39.453125 66.40625 31.78125 66.40625 
z
M 31.78125 74.21875 
Q 44.046875 74.21875 50.515625 64.515625 
Q 56.984375 54.828125 56.984375 36.375 
Q 56.984375 17.96875 50.515625 8.265625 
Q 44.046875 -1.421875 31.78125 -1.421875 
Q 19.53125 -1.421875 13.0625 8.265625 
Q 6.59375 17.96875 6.59375 36.375 
Q 6.59375 54.828125 13.0625 64.515625 
Q 19.53125 74.21875 31.78125 74.21875 
z
" id="DejaVuSans-48"/>
       <path d="M 12.40625 8.296875 
L 28.515625 8.296875 
L 28.515625 63.921875 
L 10.984375 60.40625 
L 10.984375 69.390625 
L 28.421875 72.90625 
L 38.28125 72.90625 
L 38.28125 8.296875 
L 54.390625 8.296875 
L 54.390625 0 
L 12.40625 0 
z
" id="DejaVuSans-49"/>
       <path d="M 40.578125 39.3125 
Q 47.65625 37.796875 51.625 33 
Q 55.609375 28.21875 55.609375 21.1875 
Q 55.609375 10.40625 48.1875 4.484375 
Q 40.765625 -1.421875 27.09375 -1.421875 
Q 22.515625 -1.421875 17.65625 -0.515625 
Q 12.796875 0.390625 7.625 2.203125 
L 7.625 11.71875 
Q 11.71875 9.328125 16.59375 8.109375 
Q 21.484375 6.890625 26.8125 6.890625 
Q 36.078125 6.890625 40.9375 10.546875 
Q 45.796875 14.203125 45.796875 21.1875 
Q 45.796875 27.640625 41.28125 31.265625 
Q 36.765625 34.90625 28.71875 34.90625 
L 20.21875 34.90625 
L 20.21875 43.015625 
L 29.109375 43.015625 
Q 36.375 43.015625 40.234375 45.921875 
Q 44.09375 48.828125 44.09375 54.296875 
Q 44.09375 59.90625 40.109375 62.90625 
Q 36.140625 65.921875 28.71875 65.921875 
Q 24.65625 65.921875 20.015625 65.03125 
Q 15.375 64.15625 9.8125 62.3125 
L 9.8125 71.09375 
Q 15.4375 72.65625 20.34375 73.4375 
Q 25.25 74.21875 29.59375 74.21875 
Q 40.828125 74.21875 47.359375 69.109375 
Q 53.90625 64.015625 53.90625 55.328125 
Q 53.90625 49.265625 50.4375 45.09375 
Q 46.96875 40.921875 40.578125 39.3125 
z
" id="DejaVuSans-51"/>
      </defs>
      <g style="fill:#262626;" transform="translate(242.557276 627.259081)scale(0.11 -0.11)">
       <use xlink:href="#DejaVuSans-50"/>
       <use x="63.623047" xlink:href="#DejaVuSans-48"/>
       <use x="127.246094" xlink:href="#DejaVuSans-49"/>
       <use x="190.869141" xlink:href="#DejaVuSans-51"/>
      </g>
     </g>
    </g>
    <g id="xtick_2">
     <g id="line2d_2">
      <path clip-path="url(#p5dae63c579)" d="M 395.638003 609.4008 
L 395.638003 82.1664 
" style="fill:none;stroke:#ffffff;stroke-linecap:round;"/>
     </g>
     <g id="text_2">
      <!-- 2014 -->
      <defs>
       <path d="M 37.796875 64.3125 
L 12.890625 25.390625 
L 37.796875 25.390625 
z
M 35.203125 72.90625 
L 47.609375 72.90625 
L 47.609375 25.390625 
L 58.015625 25.390625 
L 58.015625 17.1875 
L 47.609375 17.1875 
L 47.609375 0 
L 37.796875 0 
L 37.796875 17.1875 
L 4.890625 17.1875 
L 4.890625 26.703125 
z
" id="DejaVuSans-52"/>
      </defs>
      <g style="fill:#262626;" transform="translate(381.640503 627.259081)scale(0.11 -0.11)">
       <use xlink:href="#DejaVuSans-50"/>
       <use x="63.623047" xlink:href="#DejaVuSans-48"/>
       <use x="127.246094" xlink:href="#DejaVuSans-49"/>
       <use x="190.869141" xlink:href="#DejaVuSans-52"/>
      </g>
     </g>
    </g>
    <g id="xtick_3">
     <g id="line2d_3">
      <path clip-path="url(#p5dae63c579)" d="M 534.721229 609.4008 
L 534.721229 82.1664 
" style="fill:none;stroke:#ffffff;stroke-linecap:round;"/>
     </g>
     <g id="text_3">
      <!-- 2015 -->
      <defs>
       <path d="M 10.796875 72.90625 
L 49.515625 72.90625 
L 49.515625 64.59375 
L 19.828125 64.59375 
L 19.828125 46.734375 
Q 21.96875 47.46875 24.109375 47.828125 
Q 26.265625 48.1875 28.421875 48.1875 
Q 40.625 48.1875 47.75 41.5 
Q 54.890625 34.8125 54.890625 23.390625 
Q 54.890625 11.625 47.5625 5.09375 
Q 40.234375 -1.421875 26.90625 -1.421875 
Q 22.3125 -1.421875 17.546875 -0.640625 
Q 12.796875 0.140625 7.71875 1.703125 
L 7.71875 11.625 
Q 12.109375 9.234375 16.796875 8.0625 
Q 21.484375 6.890625 26.703125 6.890625 
Q 35.15625 6.890625 40.078125 11.328125 
Q 45.015625 15.765625 45.015625 23.390625 
Q 45.015625 31 40.078125 35.4375 
Q 35.15625 39.890625 26.703125 39.890625 
Q 22.75 39.890625 18.8125 39.015625 
Q 14.890625 38.140625 10.796875 36.28125 
z
" id="DejaVuSans-53"/>
      </defs>
      <g style="fill:#262626;" transform="translate(520.723729 627.259081)scale(0.11 -0.11)">
       <use xlink:href="#DejaVuSans-50"/>
       <use x="63.623047" xlink:href="#DejaVuSans-48"/>
       <use x="127.246094" xlink:href="#DejaVuSans-49"/>
       <use x="190.869141" xlink:href="#DejaVuSans-53"/>
      </g>
     </g>
    </g>
    <g id="xtick_4">
     <g id="line2d_4">
      <path clip-path="url(#p5dae63c579)" d="M 673.804456 609.4008 
L 673.804456 82.1664 
" style="fill:none;stroke:#ffffff;stroke-linecap:round;"/>
     </g>
     <g id="text_4">
      <!-- 2016 -->
      <defs>
       <path d="M 33.015625 40.375 
Q 26.375 40.375 22.484375 35.828125 
Q 18.609375 31.296875 18.609375 23.390625 
Q 18.609375 15.53125 22.484375 10.953125 
Q 26.375 6.390625 33.015625 6.390625 
Q 39.65625 6.390625 43.53125 10.953125 
Q 47.40625 15.53125 47.40625 23.390625 
Q 47.40625 31.296875 43.53125 35.828125 
Q 39.65625 40.375 33.015625 40.375 
z
M 52.59375 71.296875 
L 52.59375 62.3125 
Q 48.875 64.0625 45.09375 64.984375 
Q 41.3125 65.921875 37.59375 65.921875 
Q 27.828125 65.921875 22.671875 59.328125 
Q 17.53125 52.734375 16.796875 39.40625 
Q 19.671875 43.65625 24.015625 45.921875 
Q 28.375 48.1875 33.59375 48.1875 
Q 44.578125 48.1875 50.953125 41.515625 
Q 57.328125 34.859375 57.328125 23.390625 
Q 57.328125 12.15625 50.6875 5.359375 
Q 44.046875 -1.421875 33.015625 -1.421875 
Q 20.359375 -1.421875 13.671875 8.265625 
Q 6.984375 17.96875 6.984375 36.375 
Q 6.984375 53.65625 15.1875 63.9375 
Q 23.390625 74.21875 37.203125 74.21875 
Q 40.921875 74.21875 44.703125 73.484375 
Q 48.484375 72.75 52.59375 71.296875 
z
" id="DejaVuSans-54"/>
      </defs>
      <g style="fill:#262626;" transform="translate(659.806956 627.259081)scale(0.11 -0.11)">
       <use xlink:href="#DejaVuSans-50"/>
       <use x="63.623047" xlink:href="#DejaVuSans-48"/>
       <use x="127.246094" xlink:href="#DejaVuSans-49"/>
       <use x="190.869141" xlink:href="#DejaVuSans-54"/>
      </g>
     </g>
    </g>
    <g id="xtick_5">
     <g id="line2d_5">
      <path clip-path="url(#p5dae63c579)" d="M 813.268732 609.4008 
L 813.268732 82.1664 
" style="fill:none;stroke:#ffffff;stroke-linecap:round;"/>
     </g>
     <g id="text_5">
      <!-- 2017 -->
      <defs>
       <path d="M 8.203125 72.90625 
L 55.078125 72.90625 
L 55.078125 68.703125 
L 28.609375 0 
L 18.3125 0 
L 43.21875 64.59375 
L 8.203125 64.59375 
z
" id="DejaVuSans-55"/>
      </defs>
      <g style="fill:#262626;" transform="translate(799.271232 627.259081)scale(0.11 -0.11)">
       <use xlink:href="#DejaVuSans-50"/>
       <use x="63.623047" xlink:href="#DejaVuSans-48"/>
       <use x="127.246094" xlink:href="#DejaVuSans-49"/>
       <use x="190.869141" xlink:href="#DejaVuSans-55"/>
      </g>
     </g>
    </g>
    <g id="xtick_6">
     <g id="line2d_6">
      <path clip-path="url(#p5dae63c579)" d="M 952.351959 609.4008 
L 952.351959 82.1664 
" style="fill:none;stroke:#ffffff;stroke-linecap:round;"/>
     </g>
     <g id="text_6">
      <!-- 2018 -->
      <defs>
       <path d="M 31.78125 34.625 
Q 24.75 34.625 20.71875 30.859375 
Q 16.703125 27.09375 16.703125 20.515625 
Q 16.703125 13.921875 20.71875 10.15625 
Q 24.75 6.390625 31.78125 6.390625 
Q 38.8125 6.390625 42.859375 10.171875 
Q 46.921875 13.96875 46.921875 20.515625 
Q 46.921875 27.09375 42.890625 30.859375 
Q 38.875 34.625 31.78125 34.625 
z
M 21.921875 38.8125 
Q 15.578125 40.375 12.03125 44.71875 
Q 8.5 49.078125 8.5 55.328125 
Q 8.5 64.0625 14.71875 69.140625 
Q 20.953125 74.21875 31.78125 74.21875 
Q 42.671875 74.21875 48.875 69.140625 
Q 55.078125 64.0625 55.078125 55.328125 
Q 55.078125 49.078125 51.53125 44.71875 
Q 48 40.375 41.703125 38.8125 
Q 48.828125 37.15625 52.796875 32.3125 
Q 56.78125 27.484375 56.78125 20.515625 
Q 56.78125 9.90625 50.3125 4.234375 
Q 43.84375 -1.421875 31.78125 -1.421875 
Q 19.734375 -1.421875 13.25 4.234375 
Q 6.78125 9.90625 6.78125 20.515625 
Q 6.78125 27.484375 10.78125 32.3125 
Q 14.796875 37.15625 21.921875 38.8125 
z
M 18.3125 54.390625 
Q 18.3125 48.734375 21.84375 45.5625 
Q 25.390625 42.390625 31.78125 42.390625 
Q 38.140625 42.390625 41.71875 45.5625 
Q 45.3125 48.734375 45.3125 54.390625 
Q 45.3125 60.0625 41.71875 63.234375 
Q 38.140625 66.40625 31.78125 66.40625 
Q 25.390625 66.40625 21.84375 63.234375 
Q 18.3125 60.0625 18.3125 54.390625 
z
" id="DejaVuSans-56"/>
      </defs>
      <g style="fill:#262626;" transform="translate(938.354459 627.259081)scale(0.11 -0.11)">
       <use xlink:href="#DejaVuSans-50"/>
       <use x="63.623047" xlink:href="#DejaVuSans-48"/>
       <use x="127.246094" xlink:href="#DejaVuSans-49"/>
       <use x="190.869141" xlink:href="#DejaVuSans-56"/>
      </g>
     </g>
    </g>
    <g id="xtick_7">
     <g id="line2d_7">
      <path clip-path="url(#p5dae63c579)" d="M 1091.435186 609.4008 
L 1091.435186 82.1664 
" style="fill:none;stroke:#ffffff;stroke-linecap:round;"/>
     </g>
     <g id="text_7">
      <!-- 2019 -->
      <defs>
       <path d="M 10.984375 1.515625 
L 10.984375 10.5 
Q 14.703125 8.734375 18.5 7.8125 
Q 22.3125 6.890625 25.984375 6.890625 
Q 35.75 6.890625 40.890625 13.453125 
Q 46.046875 20.015625 46.78125 33.40625 
Q 43.953125 29.203125 39.59375 26.953125 
Q 35.25 24.703125 29.984375 24.703125 
Q 19.046875 24.703125 12.671875 31.3125 
Q 6.296875 37.9375 6.296875 49.421875 
Q 6.296875 60.640625 12.9375 67.421875 
Q 19.578125 74.21875 30.609375 74.21875 
Q 43.265625 74.21875 49.921875 64.515625 
Q 56.59375 54.828125 56.59375 36.375 
Q 56.59375 19.140625 48.40625 8.859375 
Q 40.234375 -1.421875 26.421875 -1.421875 
Q 22.703125 -1.421875 18.890625 -0.6875 
Q 15.09375 0.046875 10.984375 1.515625 
z
M 30.609375 32.421875 
Q 37.25 32.421875 41.125 36.953125 
Q 45.015625 41.5 45.015625 49.421875 
Q 45.015625 57.28125 41.125 61.84375 
Q 37.25 66.40625 30.609375 66.40625 
Q 23.96875 66.40625 20.09375 61.84375 
Q 16.21875 57.28125 16.21875 49.421875 
Q 16.21875 41.5 20.09375 36.953125 
Q 23.96875 32.421875 30.609375 32.421875 
z
" id="DejaVuSans-57"/>
      </defs>
      <g style="fill:#262626;" transform="translate(1077.437686 627.259081)scale(0.11 -0.11)">
       <use xlink:href="#DejaVuSans-50"/>
       <use x="63.623047" xlink:href="#DejaVuSans-48"/>
       <use x="127.246094" xlink:href="#DejaVuSans-49"/>
       <use x="190.869141" xlink:href="#DejaVuSans-57"/>
      </g>
     </g>
    </g>
    <g id="xtick_8">
     <g id="line2d_8">
      <path clip-path="url(#p5dae63c579)" d="M 1230.518412 609.4008 
L 1230.518412 82.1664 
" style="fill:none;stroke:#ffffff;stroke-linecap:round;"/>
     </g>
     <g id="text_8">
      <!-- 2020 -->
      <g style="fill:#262626;" transform="translate(1216.520912 627.259081)scale(0.11 -0.11)">
       <use xlink:href="#DejaVuSans-50"/>
       <use x="63.623047" xlink:href="#DejaVuSans-48"/>
       <use x="127.246094" xlink:href="#DejaVuSans-50"/>
       <use x="190.869141" xlink:href="#DejaVuSans-48"/>
      </g>
     </g>
    </g>
    <g id="text_9">
     <!-- timestamp -->
     <defs>
      <path d="M 18.3125 70.21875 
L 18.3125 54.6875 
L 36.8125 54.6875 
L 36.8125 47.703125 
L 18.3125 47.703125 
L 18.3125 18.015625 
Q 18.3125 11.328125 20.140625 9.421875 
Q 21.96875 7.515625 27.59375 7.515625 
L 36.8125 7.515625 
L 36.8125 0 
L 27.59375 0 
Q 17.1875 0 13.234375 3.875 
Q 9.28125 7.765625 9.28125 18.015625 
L 9.28125 47.703125 
L 2.6875 47.703125 
L 2.6875 54.6875 
L 9.28125 54.6875 
L 9.28125 70.21875 
z
" id="DejaVuSans-116"/>
      <path d="M 9.421875 54.6875 
L 18.40625 54.6875 
L 18.40625 0 
L 9.421875 0 
z
M 9.421875 75.984375 
L 18.40625 75.984375 
L 18.40625 64.59375 
L 9.421875 64.59375 
z
" id="DejaVuSans-105"/>
      <path d="M 52 44.1875 
Q 55.375 50.25 60.0625 53.125 
Q 64.75 56 71.09375 56 
Q 79.640625 56 84.28125 50.015625 
Q 88.921875 44.046875 88.921875 33.015625 
L 88.921875 0 
L 79.890625 0 
L 79.890625 32.71875 
Q 79.890625 40.578125 77.09375 44.375 
Q 74.3125 48.1875 68.609375 48.1875 
Q 61.625 48.1875 57.5625 43.546875 
Q 53.515625 38.921875 53.515625 30.90625 
L 53.515625 0 
L 44.484375 0 
L 44.484375 32.71875 
Q 44.484375 40.625 41.703125 44.40625 
Q 38.921875 48.1875 33.109375 48.1875 
Q 26.21875 48.1875 22.15625 43.53125 
Q 18.109375 38.875 18.109375 30.90625 
L 18.109375 0 
L 9.078125 0 
L 9.078125 54.6875 
L 18.109375 54.6875 
L 18.109375 46.1875 
Q 21.1875 51.21875 25.484375 53.609375 
Q 29.78125 56 35.6875 56 
Q 41.65625 56 45.828125 52.96875 
Q 50 49.953125 52 44.1875 
z
" id="DejaVuSans-109"/>
      <path d="M 56.203125 29.59375 
L 56.203125 25.203125 
L 14.890625 25.203125 
Q 15.484375 15.921875 20.484375 11.0625 
Q 25.484375 6.203125 34.421875 6.203125 
Q 39.59375 6.203125 44.453125 7.46875 
Q 49.3125 8.734375 54.109375 11.28125 
L 54.109375 2.78125 
Q 49.265625 0.734375 44.1875 -0.34375 
Q 39.109375 -1.421875 33.890625 -1.421875 
Q 20.796875 -1.421875 13.15625 6.1875 
Q 5.515625 13.8125 5.515625 26.8125 
Q 5.515625 40.234375 12.765625 48.109375 
Q 20.015625 56 32.328125 56 
Q 43.359375 56 49.78125 48.890625 
Q 56.203125 41.796875 56.203125 29.59375 
z
M 47.21875 32.234375 
Q 47.125 39.59375 43.09375 43.984375 
Q 39.0625 48.390625 32.421875 48.390625 
Q 24.90625 48.390625 20.390625 44.140625 
Q 15.875 39.890625 15.1875 32.171875 
z
" id="DejaVuSans-101"/>
      <path d="M 44.28125 53.078125 
L 44.28125 44.578125 
Q 40.484375 46.53125 36.375 47.5 
Q 32.28125 48.484375 27.875 48.484375 
Q 21.1875 48.484375 17.84375 46.4375 
Q 14.5 44.390625 14.5 40.28125 
Q 14.5 37.15625 16.890625 35.375 
Q 19.28125 33.59375 26.515625 31.984375 
L 29.59375 31.296875 
Q 39.15625 29.25 43.1875 25.515625 
Q 47.21875 21.78125 47.21875 15.09375 
Q 47.21875 7.46875 41.1875 3.015625 
Q 35.15625 -1.421875 24.609375 -1.421875 
Q 20.21875 -1.421875 15.453125 -0.5625 
Q 10.6875 0.296875 5.421875 2 
L 5.421875 11.28125 
Q 10.40625 8.6875 15.234375 7.390625 
Q 20.0625 6.109375 24.8125 6.109375 
Q 31.15625 6.109375 34.5625 8.28125 
Q 37.984375 10.453125 37.984375 14.40625 
Q 37.984375 18.0625 35.515625 20.015625 
Q 33.0625 21.96875 24.703125 23.78125 
L 21.578125 24.515625 
Q 13.234375 26.265625 9.515625 29.90625 
Q 5.8125 33.546875 5.8125 39.890625 
Q 5.8125 47.609375 11.28125 51.796875 
Q 16.75 56 26.8125 56 
Q 31.78125 56 36.171875 55.265625 
Q 40.578125 54.546875 44.28125 53.078125 
z
" id="DejaVuSans-115"/>
      <path d="M 34.28125 27.484375 
Q 23.390625 27.484375 19.1875 25 
Q 14.984375 22.515625 14.984375 16.5 
Q 14.984375 11.71875 18.140625 8.90625 
Q 21.296875 6.109375 26.703125 6.109375 
Q 34.1875 6.109375 38.703125 11.40625 
Q 43.21875 16.703125 43.21875 25.484375 
L 43.21875 27.484375 
z
M 52.203125 31.203125 
L 52.203125 0 
L 43.21875 0 
L 43.21875 8.296875 
Q 40.140625 3.328125 35.546875 0.953125 
Q 30.953125 -1.421875 24.3125 -1.421875 
Q 15.921875 -1.421875 10.953125 3.296875 
Q 6 8.015625 6 15.921875 
Q 6 25.140625 12.171875 29.828125 
Q 18.359375 34.515625 30.609375 34.515625 
L 43.21875 34.515625 
L 43.21875 35.40625 
Q 43.21875 41.609375 39.140625 45 
Q 35.0625 48.390625 27.6875 48.390625 
Q 23 48.390625 18.546875 47.265625 
Q 14.109375 46.140625 10.015625 43.890625 
L 10.015625 52.203125 
Q 14.9375 54.109375 19.578125 55.046875 
Q 24.21875 56 28.609375 56 
Q 40.484375 56 46.34375 49.84375 
Q 52.203125 43.703125 52.203125 31.203125 
z
" id="DejaVuSans-97"/>
      <path d="M 18.109375 8.203125 
L 18.109375 -20.796875 
L 9.078125 -20.796875 
L 9.078125 54.6875 
L 18.109375 54.6875 
L 18.109375 46.390625 
Q 20.953125 51.265625 25.265625 53.625 
Q 29.59375 56 35.59375 56 
Q 45.5625 56 51.78125 48.09375 
Q 58.015625 40.1875 58.015625 27.296875 
Q 58.015625 14.40625 51.78125 6.484375 
Q 45.5625 -1.421875 35.59375 -1.421875 
Q 29.59375 -1.421875 25.265625 0.953125 
Q 20.953125 3.328125 18.109375 8.203125 
z
M 48.6875 27.296875 
Q 48.6875 37.203125 44.609375 42.84375 
Q 40.53125 48.484375 33.40625 48.484375 
Q 26.265625 48.484375 22.1875 42.84375 
Q 18.109375 37.203125 18.109375 27.296875 
Q 18.109375 17.390625 22.1875 11.75 
Q 26.265625 6.109375 33.40625 6.109375 
Q 40.53125 6.109375 44.609375 11.75 
Q 48.6875 17.390625 48.6875 27.296875 
z
" id="DejaVuSans-112"/>
     </defs>
     <g style="fill:#262626;" transform="translate(676.116562 642.664863)scale(0.12 -0.12)">
      <use xlink:href="#DejaVuSans-116"/>
      <use x="39.208984" xlink:href="#DejaVuSans-105"/>
      <use x="66.992188" xlink:href="#DejaVuSans-109"/>
      <use x="164.404297" xlink:href="#DejaVuSans-101"/>
      <use x="225.927734" xlink:href="#DejaVuSans-115"/>
      <use x="278.027344" xlink:href="#DejaVuSans-116"/>
      <use x="317.236328" xlink:href="#DejaVuSans-97"/>
      <use x="378.515625" xlink:href="#DejaVuSans-109"/>
      <use x="475.927734" xlink:href="#DejaVuSans-112"/>
     </g>
    </g>
   </g>
   <g id="matplotlib.axis_2">
    <g id="ytick_1">
     <g id="line2d_9">
      <path clip-path="url(#p5dae63c579)" d="M 172.8 585.4356 
L 1244.16 585.4356 
" style="fill:none;stroke:#ffffff;stroke-linecap:round;"/>
     </g>
     <g id="text_10">
      <!-- 0 -->
      <g style="fill:#262626;" transform="translate(156.30125 589.614741)scale(0.11 -0.11)">
       <use xlink:href="#DejaVuSans-48"/>
      </g>
     </g>
    </g>
    <g id="ytick_2">
     <g id="line2d_10">
      <path clip-path="url(#p5dae63c579)" d="M 172.8 489.5748 
L 1244.16 489.5748 
" style="fill:none;stroke:#ffffff;stroke-linecap:round;"/>
     </g>
     <g id="text_11">
      <!-- 20 -->
      <g style="fill:#262626;" transform="translate(149.3025 493.753941)scale(0.11 -0.11)">
       <use xlink:href="#DejaVuSans-50"/>
       <use x="63.623047" xlink:href="#DejaVuSans-48"/>
      </g>
     </g>
    </g>
    <g id="ytick_3">
     <g id="line2d_11">
      <path clip-path="url(#p5dae63c579)" d="M 172.8 393.714 
L 1244.16 393.714 
" style="fill:none;stroke:#ffffff;stroke-linecap:round;"/>
     </g>
     <g id="text_12">
      <!-- 40 -->
      <g style="fill:#262626;" transform="translate(149.3025 397.893141)scale(0.11 -0.11)">
       <use xlink:href="#DejaVuSans-52"/>
       <use x="63.623047" xlink:href="#DejaVuSans-48"/>
      </g>
     </g>
    </g>
    <g id="ytick_4">
     <g id="line2d_12">
      <path clip-path="url(#p5dae63c579)" d="M 172.8 297.8532 
L 1244.16 297.8532 
" style="fill:none;stroke:#ffffff;stroke-linecap:round;"/>
     </g>
     <g id="text_13">
      <!-- 60 -->
      <g style="fill:#262626;" transform="translate(149.3025 302.032341)scale(0.11 -0.11)">
       <use xlink:href="#DejaVuSans-54"/>
       <use x="63.623047" xlink:href="#DejaVuSans-48"/>
      </g>
     </g>
    </g>
    <g id="ytick_5">
     <g id="line2d_13">
      <path clip-path="url(#p5dae63c579)" d="M 172.8 201.9924 
L 1244.16 201.9924 
" style="fill:none;stroke:#ffffff;stroke-linecap:round;"/>
     </g>
     <g id="text_14">
      <!-- 80 -->
      <g style="fill:#262626;" transform="translate(149.3025 206.171541)scale(0.11 -0.11)">
       <use xlink:href="#DejaVuSans-56"/>
       <use x="63.623047" xlink:href="#DejaVuSans-48"/>
      </g>
     </g>
    </g>
    <g id="ytick_6">
     <g id="line2d_14">
      <path clip-path="url(#p5dae63c579)" d="M 172.8 106.1316 
L 1244.16 106.1316 
" style="fill:none;stroke:#ffffff;stroke-linecap:round;"/>
     </g>
     <g id="text_15">
      <!-- 100 -->
      <g style="fill:#262626;" transform="translate(142.30375 110.310741)scale(0.11 -0.11)">
       <use xlink:href="#DejaVuSans-49"/>
       <use x="63.623047" xlink:href="#DejaVuSans-48"/>
       <use x="127.246094" xlink:href="#DejaVuSans-48"/>
      </g>
     </g>
    </g>
    <g id="text_16">
     <!-- Number of Searchers -->
     <defs>
      <path d="M 9.8125 72.90625 
L 23.09375 72.90625 
L 55.421875 11.921875 
L 55.421875 72.90625 
L 64.984375 72.90625 
L 64.984375 0 
L 51.703125 0 
L 19.390625 60.984375 
L 19.390625 0 
L 9.8125 0 
z
" id="DejaVuSans-78"/>
      <path d="M 8.5 21.578125 
L 8.5 54.6875 
L 17.484375 54.6875 
L 17.484375 21.921875 
Q 17.484375 14.15625 20.5 10.265625 
Q 23.53125 6.390625 29.59375 6.390625 
Q 36.859375 6.390625 41.078125 11.03125 
Q 45.3125 15.671875 45.3125 23.6875 
L 45.3125 54.6875 
L 54.296875 54.6875 
L 54.296875 0 
L 45.3125 0 
L 45.3125 8.40625 
Q 42.046875 3.421875 37.71875 1 
Q 33.40625 -1.421875 27.6875 -1.421875 
Q 18.265625 -1.421875 13.375 4.4375 
Q 8.5 10.296875 8.5 21.578125 
z
M 31.109375 56 
z
" id="DejaVuSans-117"/>
      <path d="M 48.6875 27.296875 
Q 48.6875 37.203125 44.609375 42.84375 
Q 40.53125 48.484375 33.40625 48.484375 
Q 26.265625 48.484375 22.1875 42.84375 
Q 18.109375 37.203125 18.109375 27.296875 
Q 18.109375 17.390625 22.1875 11.75 
Q 26.265625 6.109375 33.40625 6.109375 
Q 40.53125 6.109375 44.609375 11.75 
Q 48.6875 17.390625 48.6875 27.296875 
z
M 18.109375 46.390625 
Q 20.953125 51.265625 25.265625 53.625 
Q 29.59375 56 35.59375 56 
Q 45.5625 56 51.78125 48.09375 
Q 58.015625 40.1875 58.015625 27.296875 
Q 58.015625 14.40625 51.78125 6.484375 
Q 45.5625 -1.421875 35.59375 -1.421875 
Q 29.59375 -1.421875 25.265625 0.953125 
Q 20.953125 3.328125 18.109375 8.203125 
L 18.109375 0 
L 9.078125 0 
L 9.078125 75.984375 
L 18.109375 75.984375 
z
" id="DejaVuSans-98"/>
      <path d="M 41.109375 46.296875 
Q 39.59375 47.171875 37.8125 47.578125 
Q 36.03125 48 33.890625 48 
Q 26.265625 48 22.1875 43.046875 
Q 18.109375 38.09375 18.109375 28.8125 
L 18.109375 0 
L 9.078125 0 
L 9.078125 54.6875 
L 18.109375 54.6875 
L 18.109375 46.1875 
Q 20.953125 51.171875 25.484375 53.578125 
Q 30.03125 56 36.53125 56 
Q 37.453125 56 38.578125 55.875 
Q 39.703125 55.765625 41.0625 55.515625 
z
" id="DejaVuSans-114"/>
      <path id="DejaVuSans-32"/>
      <path d="M 30.609375 48.390625 
Q 23.390625 48.390625 19.1875 42.75 
Q 14.984375 37.109375 14.984375 27.296875 
Q 14.984375 17.484375 19.15625 11.84375 
Q 23.34375 6.203125 30.609375 6.203125 
Q 37.796875 6.203125 41.984375 11.859375 
Q 46.1875 17.53125 46.1875 27.296875 
Q 46.1875 37.015625 41.984375 42.703125 
Q 37.796875 48.390625 30.609375 48.390625 
z
M 30.609375 56 
Q 42.328125 56 49.015625 48.375 
Q 55.71875 40.765625 55.71875 27.296875 
Q 55.71875 13.875 49.015625 6.21875 
Q 42.328125 -1.421875 30.609375 -1.421875 
Q 18.84375 -1.421875 12.171875 6.21875 
Q 5.515625 13.875 5.515625 27.296875 
Q 5.515625 40.765625 12.171875 48.375 
Q 18.84375 56 30.609375 56 
z
" id="DejaVuSans-111"/>
      <path d="M 37.109375 75.984375 
L 37.109375 68.5 
L 28.515625 68.5 
Q 23.6875 68.5 21.796875 66.546875 
Q 19.921875 64.59375 19.921875 59.515625 
L 19.921875 54.6875 
L 34.71875 54.6875 
L 34.71875 47.703125 
L 19.921875 47.703125 
L 19.921875 0 
L 10.890625 0 
L 10.890625 47.703125 
L 2.296875 47.703125 
L 2.296875 54.6875 
L 10.890625 54.6875 
L 10.890625 58.5 
Q 10.890625 67.625 15.140625 71.796875 
Q 19.390625 75.984375 28.609375 75.984375 
z
" id="DejaVuSans-102"/>
      <path d="M 53.515625 70.515625 
L 53.515625 60.890625 
Q 47.90625 63.578125 42.921875 64.890625 
Q 37.9375 66.21875 33.296875 66.21875 
Q 25.25 66.21875 20.875 63.09375 
Q 16.5 59.96875 16.5 54.203125 
Q 16.5 49.359375 19.40625 46.890625 
Q 22.3125 44.4375 30.421875 42.921875 
L 36.375 41.703125 
Q 47.40625 39.59375 52.65625 34.296875 
Q 57.90625 29 57.90625 20.125 
Q 57.90625 9.515625 50.796875 4.046875 
Q 43.703125 -1.421875 29.984375 -1.421875 
Q 24.8125 -1.421875 18.96875 -0.25 
Q 13.140625 0.921875 6.890625 3.21875 
L 6.890625 13.375 
Q 12.890625 10.015625 18.65625 8.296875 
Q 24.421875 6.59375 29.984375 6.59375 
Q 38.421875 6.59375 43.015625 9.90625 
Q 47.609375 13.234375 47.609375 19.390625 
Q 47.609375 24.75 44.3125 27.78125 
Q 41.015625 30.8125 33.5 32.328125 
L 27.484375 33.5 
Q 16.453125 35.6875 11.515625 40.375 
Q 6.59375 45.0625 6.59375 53.421875 
Q 6.59375 63.09375 13.40625 68.65625 
Q 20.21875 74.21875 32.171875 74.21875 
Q 37.3125 74.21875 42.625 73.28125 
Q 47.953125 72.359375 53.515625 70.515625 
z
" id="DejaVuSans-83"/>
      <path d="M 48.78125 52.59375 
L 48.78125 44.1875 
Q 44.96875 46.296875 41.140625 47.34375 
Q 37.3125 48.390625 33.40625 48.390625 
Q 24.65625 48.390625 19.8125 42.84375 
Q 14.984375 37.3125 14.984375 27.296875 
Q 14.984375 17.28125 19.8125 11.734375 
Q 24.65625 6.203125 33.40625 6.203125 
Q 37.3125 6.203125 41.140625 7.25 
Q 44.96875 8.296875 48.78125 10.40625 
L 48.78125 2.09375 
Q 45.015625 0.34375 40.984375 -0.53125 
Q 36.96875 -1.421875 32.421875 -1.421875 
Q 20.0625 -1.421875 12.78125 6.34375 
Q 5.515625 14.109375 5.515625 27.296875 
Q 5.515625 40.671875 12.859375 48.328125 
Q 20.21875 56 33.015625 56 
Q 37.15625 56 41.109375 55.140625 
Q 45.0625 54.296875 48.78125 52.59375 
z
" id="DejaVuSans-99"/>
      <path d="M 54.890625 33.015625 
L 54.890625 0 
L 45.90625 0 
L 45.90625 32.71875 
Q 45.90625 40.484375 42.875 44.328125 
Q 39.84375 48.1875 33.796875 48.1875 
Q 26.515625 48.1875 22.3125 43.546875 
Q 18.109375 38.921875 18.109375 30.90625 
L 18.109375 0 
L 9.078125 0 
L 9.078125 75.984375 
L 18.109375 75.984375 
L 18.109375 46.1875 
Q 21.34375 51.125 25.703125 53.5625 
Q 30.078125 56 35.796875 56 
Q 45.21875 56 50.046875 50.171875 
Q 54.890625 44.34375 54.890625 33.015625 
z
" id="DejaVuSans-104"/>
     </defs>
     <g style="fill:#262626;" transform="translate(135.808125 409.512037)rotate(-90)scale(0.12 -0.12)">
      <use xlink:href="#DejaVuSans-78"/>
      <use x="74.804688" xlink:href="#DejaVuSans-117"/>
      <use x="138.183594" xlink:href="#DejaVuSans-109"/>
      <use x="235.595703" xlink:href="#DejaVuSans-98"/>
      <use x="299.072266" xlink:href="#DejaVuSans-101"/>
      <use x="360.595703" xlink:href="#DejaVuSans-114"/>
      <use x="401.708984" xlink:href="#DejaVuSans-32"/>
      <use x="433.496094" xlink:href="#DejaVuSans-111"/>
      <use x="494.677734" xlink:href="#DejaVuSans-102"/>
      <use x="529.882812" xlink:href="#DejaVuSans-32"/>
      <use x="561.669922" xlink:href="#DejaVuSans-83"/>
      <use x="625.146484" xlink:href="#DejaVuSans-101"/>
      <use x="686.669922" xlink:href="#DejaVuSans-97"/>
      <use x="747.949219" xlink:href="#DejaVuSans-114"/>
      <use x="789.03125" xlink:href="#DejaVuSans-99"/>
      <use x="844.011719" xlink:href="#DejaVuSans-104"/>
      <use x="907.390625" xlink:href="#DejaVuSans-101"/>
      <use x="968.914062" xlink:href="#DejaVuSans-114"/>
      <use x="1010.027344" xlink:href="#DejaVuSans-115"/>
     </g>
    </g>
   </g>
   <g id="line2d_15">
    <path clip-path="url(#p5dae63c579)" d="M 221.498182 168.44112 
L 233.31073 484.78176 
L 244.742228 542.29824 
L 256.554776 571.05648 
L 268.367324 547.09128 
L 279.036722 571.05648 
L 290.84927 585.4356 
L 302.280768 556.67736 
L 314.093316 556.67736 
L 325.524814 556.67736 
L 337.337362 556.67736 
L 349.14991 484.78176 
L 360.581408 412.88616 
L 372.393956 484.78176 
L 383.825455 571.05648 
L 395.638003 571.05648 
L 407.450551 585.4356 
L 418.119949 571.05648 
L 429.932497 571.05648 
L 441.363995 556.67736 
L 453.176543 585.4356 
L 464.608041 571.05648 
L 476.420589 571.05648 
L 488.233137 508.74696 
L 499.664635 369.7488 
L 511.477183 479.98872 
L 522.908681 571.05648 
L 534.721229 585.4356 
L 546.533777 571.05648 
L 557.203175 585.4356 
L 569.015723 571.05648 
L 580.447222 571.05648 
L 592.25977 585.4356 
L 603.691268 571.05648 
L 615.503816 566.26344 
L 627.316364 537.5052 
L 638.747862 379.33488 
L 650.56041 460.81656 
L 661.991908 566.26344 
L 673.804456 547.09128 
L 685.617004 585.4356 
L 696.667452 551.88432 
L 708.48 585.4356 
L 719.911498 575.84952 
L 731.724046 561.4704 
L 743.155544 556.67736 
L 754.968092 571.05648 
L 766.78064 499.16088 
L 778.212138 106.1316 
L 790.024686 499.16088 
L 801.456184 566.26344 
L 813.268732 575.84952 
L 825.08128 585.4356 
L 835.750679 556.67736 
L 847.563227 556.67736 
L 858.994725 571.05648 
L 870.807273 566.26344 
L 882.238771 561.4704 
L 894.051319 585.4356 
L 905.863867 566.26344 
L 917.295365 134.88984 
L 929.107913 312.23232 
L 940.539411 585.4356 
L 952.351959 585.4356 
L 964.164507 556.67736 
L 974.833905 561.4704 
L 986.646453 575.84952 
L 998.077951 571.05648 
L 1009.890499 575.84952 
L 1021.321997 571.05648 
L 1033.134545 551.88432 
L 1044.947093 527.91912 
L 1056.378592 465.6096 
L 1068.19114 417.6792 
L 1079.622638 561.4704 
L 1091.435186 571.05648 
L 1103.247734 561.4704 
L 1113.917132 575.84952 
L 1125.72968 575.84952 
L 1137.161178 571.05648 
L 1148.973726 575.84952 
L 1160.405224 575.84952 
L 1172.217772 575.84952 
L 1184.03032 566.26344 
L 1195.461818 508.74696 
" style="fill:none;stroke:#4c72b0;stroke-linecap:round;stroke-width:1.5;"/>
   </g>
   <g id="line2d_16">
    <path clip-path="url(#p5dae63c579)" d="M 221.498182 178.0272 
L 233.31073 508.74696 
L 244.742228 513.54 
L 256.554776 551.88432 
L 268.367324 547.09128 
L 279.036722 547.09128 
L 290.84927 585.4356 
L 302.280768 547.09128 
L 314.093316 585.4356 
L 325.524814 547.09128 
L 337.337362 532.71216 
L 349.14991 422.47224 
L 360.581408 398.50704 
L 372.393956 551.88432 
L 383.825455 551.88432 
L 395.638003 585.4356 
L 407.450551 551.88432 
L 418.119949 551.88432 
L 429.932497 585.4356 
L 441.363995 585.4356 
L 453.176543 585.4356 
L 464.608041 585.4356 
L 476.420589 585.4356 
L 488.233137 460.81656 
L 499.664635 106.1316 
L 511.477183 547.09128 
L 522.908681 547.09128 
L 534.721229 532.71216 
L 546.533777 585.4356 
L 557.203175 585.4356 
L 569.015723 532.71216 
L 580.447222 508.74696 
L 592.25977 508.74696 
L 603.691268 513.54 
L 615.503816 551.88432 
L 627.316364 398.50704 
L 638.747862 187.61328 
L 650.56041 479.98872 
L 661.991908 551.88432 
L 673.804456 551.88432 
L 685.617004 551.88432 
L 696.667452 556.67736 
L 708.48 556.67736 
L 719.911498 585.4356 
L 731.724046 551.88432 
L 743.155544 551.88432 
L 754.968092 551.88432 
L 766.78064 537.5052 
L 778.212138 479.98872 
L 790.024686 508.74696 
L 801.456184 542.29824 
L 813.268732 556.67736 
L 825.08128 556.67736 
L 835.750679 585.4356 
L 847.563227 585.4356 
L 858.994725 585.4356 
L 870.807273 551.88432 
L 882.238771 523.12608 
L 894.051319 542.29824 
L 905.863867 465.6096 
L 917.295365 331.40448 
L 929.107913 523.12608 
L 940.539411 556.67736 
L 952.351959 527.91912 
L 964.164507 585.4356 
L 974.833905 556.67736 
L 986.646453 585.4356 
L 998.077951 527.91912 
L 1009.890499 556.67736 
L 1021.321997 556.67736 
L 1033.134545 537.5052 
L 1044.947093 556.67736 
L 1056.378592 379.33488 
L 1068.19114 527.91912 
L 1079.622638 556.67736 
L 1091.435186 556.67736 
L 1103.247734 585.4356 
L 1113.917132 556.67736 
L 1125.72968 585.4356 
L 1137.161178 556.67736 
L 1148.973726 556.67736 
L 1160.405224 503.95392 
L 1172.217772 585.4356 
L 1184.03032 547.09128 
L 1195.461818 446.43744 
" style="fill:none;stroke:#dd8452;stroke-linecap:round;stroke-width:1.5;"/>
   </g>
   <g id="line2d_17">
    <path clip-path="url(#p5dae63c579)" d="M 221.498182 571.05648 
L 233.31073 580.64256 
L 244.742228 585.4356 
L 256.554776 580.64256 
L 268.367324 585.4356 
L 279.036722 580.64256 
L 290.84927 580.64256 
L 302.280768 571.05648 
L 314.093316 585.4356 
L 325.524814 580.64256 
L 337.337362 585.4356 
L 349.14991 585.4356 
L 360.581408 580.64256 
L 372.393956 585.4356 
L 383.825455 585.4356 
L 395.638003 580.64256 
L 407.450551 585.4356 
L 418.119949 580.64256 
L 429.932497 585.4356 
L 441.363995 585.4356 
L 453.176543 585.4356 
L 464.608041 585.4356 
L 476.420589 580.64256 
L 488.233137 580.64256 
L 499.664635 566.26344 
L 511.477183 585.4356 
L 522.908681 585.4356 
L 534.721229 580.64256 
L 546.533777 585.4356 
L 557.203175 585.4356 
L 569.015723 585.4356 
L 580.447222 585.4356 
L 592.25977 585.4356 
L 603.691268 575.84952 
L 615.503816 566.26344 
L 627.316364 503.95392 
L 638.747862 345.7836 
L 650.56041 566.26344 
L 661.991908 575.84952 
L 673.804456 571.05648 
L 685.617004 571.05648 
L 696.667452 556.67736 
L 708.48 566.26344 
L 719.911498 566.26344 
L 731.724046 571.05648 
L 743.155544 556.67736 
L 754.968092 556.67736 
L 766.78064 523.12608 
L 778.212138 106.1316 
L 790.024686 494.36784 
L 801.456184 561.4704 
L 813.268732 547.09128 
L 825.08128 556.67736 
L 835.750679 566.26344 
L 847.563227 571.05648 
L 858.994725 571.05648 
L 870.807273 571.05648 
L 882.238771 571.05648 
L 894.051319 571.05648 
L 905.863867 523.12608 
L 917.295365 264.30192 
L 929.107913 537.5052 
L 940.539411 571.05648 
L 952.351959 571.05648 
L 964.164507 561.4704 
L 974.833905 571.05648 
L 986.646453 566.26344 
L 998.077951 566.26344 
L 1009.890499 561.4704 
L 1021.321997 575.84952 
L 1033.134545 566.26344 
L 1044.947093 532.71216 
L 1056.378592 384.12792 
L 1068.19114 551.88432 
L 1079.622638 571.05648 
L 1091.435186 571.05648 
L 1103.247734 580.64256 
L 1113.917132 571.05648 
L 1125.72968 575.84952 
L 1137.161178 571.05648 
L 1148.973726 580.64256 
L 1160.405224 575.84952 
L 1172.217772 571.05648 
L 1184.03032 551.88432 
L 1195.461818 456.02352 
" style="fill:none;stroke:#55a868;stroke-linecap:round;stroke-width:1.5;"/>
   </g>
   <g id="line2d_18">
    <path clip-path="url(#p5dae63c579)" d="M 221.498182 465.6096 
L 233.31073 580.64256 
L 244.742228 580.64256 
L 256.554776 580.64256 
L 268.367324 571.05648 
L 279.036722 580.64256 
L 290.84927 575.84952 
L 302.280768 580.64256 
L 314.093316 580.64256 
L 325.524814 571.05648 
L 337.337362 561.4704 
L 349.14991 523.12608 
L 360.581408 441.6444 
L 372.393956 580.64256 
L 383.825455 580.64256 
L 395.638003 575.84952 
L 407.450551 575.84952 
L 418.119949 580.64256 
L 429.932497 571.05648 
L 441.363995 575.84952 
L 453.176543 575.84952 
L 464.608041 566.26344 
L 476.420589 556.67736 
L 488.233137 532.71216 
L 499.664635 398.50704 
L 511.477183 571.05648 
L 522.908681 580.64256 
L 534.721229 575.84952 
L 546.533777 575.84952 
L 557.203175 580.64256 
L 569.015723 571.05648 
L 580.447222 561.4704 
L 592.25977 561.4704 
L 603.691268 542.29824 
L 615.503816 542.29824 
L 627.316364 451.23048 
L 638.747862 178.0272 
L 650.56041 547.09128 
L 661.991908 575.84952 
L 673.804456 571.05648 
L 685.617004 561.4704 
L 696.667452 566.26344 
L 708.48 566.26344 
L 719.911498 571.05648 
L 731.724046 571.05648 
L 743.155544 566.26344 
L 754.968092 460.81656 
L 766.78064 412.88616 
L 778.212138 187.61328 
L 790.024686 566.26344 
L 801.456184 566.26344 
L 813.268732 566.26344 
L 825.08128 566.26344 
L 835.750679 556.67736 
L 847.563227 571.05648 
L 858.994725 571.05648 
L 870.807273 571.05648 
L 882.238771 566.26344 
L 894.051319 542.29824 
L 905.863867 503.95392 
L 917.295365 302.64624 
L 929.107913 561.4704 
L 940.539411 566.26344 
L 952.351959 566.26344 
L 964.164507 566.26344 
L 974.833905 571.05648 
L 986.646453 566.26344 
L 998.077951 575.84952 
L 1009.890499 571.05648 
L 1021.321997 556.67736 
L 1033.134545 566.26344 
L 1044.947093 489.5748 
L 1056.378592 384.12792 
L 1068.19114 556.67736 
L 1079.622638 566.26344 
L 1091.435186 575.84952 
L 1103.247734 561.4704 
L 1113.917132 566.26344 
L 1125.72968 561.4704 
L 1137.161178 571.05648 
L 1148.973726 571.05648 
L 1160.405224 575.84952 
L 1172.217772 556.67736 
L 1184.03032 494.36784 
L 1195.461818 106.1316 
" style="fill:none;stroke:#c44e52;stroke-linecap:round;stroke-width:1.5;"/>
   </g>
   <g id="line2d_19">
    <path clip-path="url(#p5dae63c579)" d="M 221.498182 312.23232 
L 233.31073 585.4356 
L 244.742228 585.4356 
L 256.554776 561.4704 
L 268.367324 571.05648 
L 279.036722 575.84952 
L 290.84927 571.05648 
L 302.280768 575.84952 
L 314.093316 571.05648 
L 325.524814 571.05648 
L 337.337362 556.67736 
L 349.14991 513.54 
L 360.581408 182.82024 
L 372.393956 532.71216 
L 383.825455 566.26344 
L 395.638003 575.84952 
L 407.450551 571.05648 
L 418.119949 571.05648 
L 429.932497 566.26344 
L 441.363995 575.84952 
L 453.176543 556.67736 
L 464.608041 542.29824 
L 476.420589 561.4704 
L 488.233137 456.02352 
L 499.664635 154.062 
L 511.477183 551.88432 
L 522.908681 547.09128 
L 534.721229 571.05648 
L 546.533777 571.05648 
L 557.203175 575.84952 
L 569.015723 575.84952 
L 580.447222 571.05648 
L 592.25977 575.84952 
L 603.691268 571.05648 
L 615.503816 537.5052 
L 627.316364 456.02352 
L 638.747862 182.82024 
L 650.56041 542.29824 
L 661.991908 575.84952 
L 673.804456 561.4704 
L 685.617004 566.26344 
L 696.667452 547.09128 
L 708.48 575.84952 
L 719.911498 566.26344 
L 731.724046 561.4704 
L 743.155544 556.67736 
L 754.968092 537.5052 
L 766.78064 436.85136 
L 778.212138 134.88984 
L 790.024686 547.09128 
L 801.456184 571.05648 
L 813.268732 547.09128 
L 825.08128 551.88432 
L 835.750679 551.88432 
L 847.563227 551.88432 
L 858.994725 561.4704 
L 870.807273 556.67736 
L 882.238771 532.71216 
L 894.051319 523.12608 
L 905.863867 436.85136 
L 917.295365 106.1316 
L 929.107913 542.29824 
L 940.539411 542.29824 
L 952.351959 561.4704 
L 964.164507 542.29824 
L 974.833905 566.26344 
L 986.646453 566.26344 
L 998.077951 561.4704 
L 1009.890499 566.26344 
L 1021.321997 561.4704 
L 1033.134545 532.71216 
L 1044.947093 432.05832 
L 1056.378592 125.30376 
L 1068.19114 537.5052 
L 1079.622638 547.09128 
L 1091.435186 556.67736 
L 1103.247734 571.05648 
L 1113.917132 571.05648 
L 1125.72968 571.05648 
L 1137.161178 571.05648 
L 1148.973726 561.4704 
L 1160.405224 542.29824 
L 1172.217772 532.71216 
L 1184.03032 436.85136 
L 1195.461818 187.61328 
" style="fill:none;stroke:#8172b3;stroke-linecap:round;stroke-width:1.5;"/>
   </g>
   <g id="line2d_20">
    <path clip-path="url(#p5dae63c579)" d="M 221.498182 379.33488 
L 233.31073 556.67736 
L 244.742228 561.4704 
L 256.554776 566.26344 
L 268.367324 566.26344 
L 279.036722 566.26344 
L 290.84927 566.26344 
L 302.280768 585.4356 
L 314.093316 556.67736 
L 325.524814 551.88432 
L 337.337362 566.26344 
L 349.14991 479.98872 
L 360.581408 360.16272 
L 372.393956 561.4704 
L 383.825455 585.4356 
L 395.638003 561.4704 
L 407.450551 551.88432 
L 418.119949 561.4704 
L 429.932497 571.05648 
L 441.363995 566.26344 
L 453.176543 566.26344 
L 464.608041 561.4704 
L 476.420589 489.5748 
L 488.233137 475.19568 
L 499.664635 398.50704 
L 511.477183 551.88432 
L 522.908681 571.05648 
L 534.721229 571.05648 
L 546.533777 556.67736 
L 557.203175 585.4356 
L 569.015723 585.4356 
L 580.447222 566.26344 
L 592.25977 561.4704 
L 603.691268 585.4356 
L 615.503816 527.91912 
L 627.316364 456.02352 
L 638.747862 230.75064 
L 650.56041 551.88432 
L 661.991908 551.88432 
L 673.804456 561.4704 
L 685.617004 571.05648 
L 696.667452 537.5052 
L 708.48 571.05648 
L 719.911498 571.05648 
L 731.724046 551.88432 
L 743.155544 561.4704 
L 754.968092 542.29824 
L 766.78064 470.40264 
L 778.212138 326.61144 
L 790.024686 571.05648 
L 801.456184 571.05648 
L 813.268732 551.88432 
L 825.08128 532.71216 
L 835.750679 566.26344 
L 847.563227 556.67736 
L 858.994725 566.26344 
L 870.807273 571.05648 
L 882.238771 551.88432 
L 894.051319 532.71216 
L 905.863867 479.98872 
L 917.295365 384.12792 
L 929.107913 542.29824 
L 940.539411 551.88432 
L 952.351959 542.29824 
L 964.164507 566.26344 
L 974.833905 566.26344 
L 986.646453 561.4704 
L 998.077951 547.09128 
L 1009.890499 537.5052 
L 1021.321997 537.5052 
L 1033.134545 556.67736 
L 1044.947093 441.6444 
L 1056.378592 336.19752 
L 1068.19114 551.88432 
L 1079.622638 556.67736 
L 1091.435186 551.88432 
L 1103.247734 547.09128 
L 1113.917132 556.67736 
L 1125.72968 571.05648 
L 1137.161178 566.26344 
L 1148.973726 556.67736 
L 1160.405224 556.67736 
L 1172.217772 518.33304 
L 1184.03032 374.54184 
L 1195.461818 106.1316 
" style="fill:none;stroke:#937860;stroke-linecap:round;stroke-width:1.5;"/>
   </g>
   <g id="line2d_21">
    <path clip-path="url(#p5dae63c579)" d="M 221.498182 106.1316 
L 233.31073 542.29824 
L 244.742228 527.91912 
L 256.554776 503.95392 
L 268.367324 556.67736 
L 279.036722 542.29824 
L 290.84927 494.36784 
L 302.280768 384.12792 
L 314.093316 503.95392 
L 325.524814 503.95392 
L 337.337362 479.98872 
L 349.14991 398.50704 
L 360.581408 130.0968 
L 372.393956 537.5052 
L 383.825455 513.54 
L 395.638003 532.71216 
L 407.450551 527.91912 
L 418.119949 508.74696 
L 429.932497 547.09128 
L 441.363995 542.29824 
L 453.176543 523.12608 
L 464.608041 518.33304 
L 476.420589 513.54 
L 488.233137 470.40264 
L 499.664635 273.888 
L 511.477183 503.95392 
L 522.908681 547.09128 
L 534.721229 561.4704 
L 546.533777 542.29824 
L 557.203175 532.71216 
L 569.015723 523.12608 
L 580.447222 479.98872 
L 592.25977 518.33304 
L 603.691268 537.5052 
L 615.503816 518.33304 
L 627.316364 422.47224 
L 638.747862 211.57848 
L 650.56041 513.54 
L 661.991908 556.67736 
L 673.804456 551.88432 
L 685.617004 556.67736 
L 696.667452 532.71216 
L 708.48 532.71216 
L 719.911498 479.98872 
L 731.724046 503.95392 
L 743.155544 508.74696 
L 754.968092 532.71216 
L 766.78064 465.6096 
L 778.212138 326.61144 
L 790.024686 542.29824 
L 801.456184 527.91912 
L 813.268732 532.71216 
L 825.08128 523.12608 
L 835.750679 556.67736 
L 847.563227 542.29824 
L 858.994725 537.5052 
L 870.807273 532.71216 
L 882.238771 499.16088 
L 894.051319 532.71216 
L 905.863867 446.43744 
L 917.295365 345.7836 
L 929.107913 561.4704 
L 940.539411 518.33304 
L 952.351959 508.74696 
L 964.164507 542.29824 
L 974.833905 542.29824 
L 986.646453 537.5052 
L 998.077951 499.16088 
L 1009.890499 513.54 
L 1021.321997 499.16088 
L 1033.134545 489.5748 
L 1044.947093 417.6792 
L 1056.378592 336.19752 
L 1068.19114 513.54 
L 1079.622638 523.12608 
L 1091.435186 551.88432 
L 1103.247734 523.12608 
L 1113.917132 508.74696 
L 1125.72968 518.33304 
L 1137.161178 479.98872 
L 1148.973726 518.33304 
L 1160.405224 494.36784 
L 1172.217772 489.5748 
L 1184.03032 408.09312 
L 1195.461818 273.888 
" style="fill:none;stroke:#da8bc3;stroke-linecap:round;stroke-width:1.5;"/>
   </g>
   <g id="line2d_22">
    <path clip-path="url(#p5dae63c579)" d="M 221.498182 307.43928 
L 233.31073 518.33304 
L 244.742228 532.71216 
L 256.554776 542.29824 
L 268.367324 508.74696 
L 279.036722 556.67736 
L 290.84927 523.12608 
L 302.280768 523.12608 
L 314.093316 542.29824 
L 325.524814 523.12608 
L 337.337362 494.36784 
L 349.14991 436.85136 
L 360.581408 340.99056 
L 372.393956 523.12608 
L 383.825455 532.71216 
L 395.638003 542.29824 
L 407.450551 523.12608 
L 418.119949 527.91912 
L 429.932497 518.33304 
L 441.363995 432.05832 
L 453.176543 532.71216 
L 464.608041 527.91912 
L 476.420589 499.16088 
L 488.233137 398.50704 
L 499.664635 288.26712 
L 511.477183 537.5052 
L 522.908681 513.54 
L 534.721229 551.88432 
L 546.533777 523.12608 
L 557.203175 513.54 
L 569.015723 513.54 
L 580.447222 518.33304 
L 592.25977 513.54 
L 603.691268 508.74696 
L 615.503816 508.74696 
L 627.316364 432.05832 
L 638.747862 302.64624 
L 650.56041 508.74696 
L 661.991908 523.12608 
L 673.804456 518.33304 
L 685.617004 499.16088 
L 696.667452 422.47224 
L 708.48 494.36784 
L 719.911498 499.16088 
L 731.724046 503.95392 
L 743.155544 508.74696 
L 754.968092 523.12608 
L 766.78064 398.50704 
L 778.212138 259.50888 
L 790.024686 527.91912 
L 801.456184 499.16088 
L 813.268732 518.33304 
L 825.08128 523.12608 
L 835.750679 532.71216 
L 847.563227 518.33304 
L 858.994725 508.74696 
L 870.807273 489.5748 
L 882.238771 408.09312 
L 894.051319 441.6444 
L 905.863867 379.33488 
L 917.295365 245.12976 
L 929.107913 484.78176 
L 940.539411 489.5748 
L 952.351959 513.54 
L 964.164507 503.95392 
L 974.833905 499.16088 
L 986.646453 508.74696 
L 998.077951 470.40264 
L 1009.890499 479.98872 
L 1021.321997 494.36784 
L 1033.134545 465.6096 
L 1044.947093 249.9228 
L 1056.378592 106.1316 
L 1068.19114 470.40264 
L 1079.622638 484.78176 
L 1091.435186 513.54 
L 1103.247734 503.95392 
L 1113.917132 499.16088 
L 1125.72968 523.12608 
L 1137.161178 503.95392 
L 1148.973726 508.74696 
L 1160.405224 465.6096 
L 1172.217772 412.88616 
L 1184.03032 345.7836 
L 1195.461818 211.57848 
" style="fill:none;stroke:#8c8c8c;stroke-linecap:round;stroke-width:1.5;"/>
   </g>
   <g id="patch_3">
    <path d="M 172.8 609.4008 
L 172.8 82.1664 
" style="fill:none;stroke:#ffffff;stroke-linecap:square;stroke-linejoin:miter;stroke-width:1.25;"/>
   </g>
   <g id="patch_4">
    <path d="M 1244.16 609.4008 
L 1244.16 82.1664 
" style="fill:none;stroke:#ffffff;stroke-linecap:square;stroke-linejoin:miter;stroke-width:1.25;"/>
   </g>
   <g id="patch_5">
    <path d="M 172.8 609.4008 
L 1244.16 609.4008 
" style="fill:none;stroke:#ffffff;stroke-linecap:square;stroke-linejoin:miter;stroke-width:1.25;"/>
   </g>
   <g id="patch_6">
    <path d="M 172.8 82.1664 
L 1244.16 82.1664 
" style="fill:none;stroke:#ffffff;stroke-linecap:square;stroke-linejoin:miter;stroke-width:1.25;"/>
   </g>
   <g id="legend_1">
    <g id="patch_7">
     <path d="M 180.5 220.1339 
L 354.251875 220.1339 
Q 356.451875 220.1339 356.451875 217.9339 
L 356.451875 89.8664 
Q 356.451875 87.6664 354.251875 87.6664 
L 180.5 87.6664 
Q 178.3 87.6664 178.3 89.8664 
L 178.3 217.9339 
Q 178.3 220.1339 180.5 220.1339 
z
" style="fill:#eaeaf2;opacity:0.8;stroke:#cccccc;stroke-linejoin:miter;"/>
    </g>
    <g id="line2d_23">
     <path d="M 182.7 96.574681 
L 204.7 96.574681 
" style="fill:none;stroke:#4c72b0;stroke-linecap:round;stroke-width:1.5;"/>
    </g>
    <g id="line2d_24"/>
    <g id="text_17">
     <!-- Kim Kardashian Costume -->
     <defs>
      <path d="M 9.8125 72.90625 
L 19.671875 72.90625 
L 19.671875 42.09375 
L 52.390625 72.90625 
L 65.09375 72.90625 
L 28.90625 38.921875 
L 67.671875 0 
L 54.6875 0 
L 19.671875 35.109375 
L 19.671875 0 
L 9.8125 0 
z
" id="DejaVuSans-75"/>
      <path d="M 45.40625 46.390625 
L 45.40625 75.984375 
L 54.390625 75.984375 
L 54.390625 0 
L 45.40625 0 
L 45.40625 8.203125 
Q 42.578125 3.328125 38.25 0.953125 
Q 33.9375 -1.421875 27.875 -1.421875 
Q 17.96875 -1.421875 11.734375 6.484375 
Q 5.515625 14.40625 5.515625 27.296875 
Q 5.515625 40.1875 11.734375 48.09375 
Q 17.96875 56 27.875 56 
Q 33.9375 56 38.25 53.625 
Q 42.578125 51.265625 45.40625 46.390625 
z
M 14.796875 27.296875 
Q 14.796875 17.390625 18.875 11.75 
Q 22.953125 6.109375 30.078125 6.109375 
Q 37.203125 6.109375 41.296875 11.75 
Q 45.40625 17.390625 45.40625 27.296875 
Q 45.40625 37.203125 41.296875 42.84375 
Q 37.203125 48.484375 30.078125 48.484375 
Q 22.953125 48.484375 18.875 42.84375 
Q 14.796875 37.203125 14.796875 27.296875 
z
" id="DejaVuSans-100"/>
      <path d="M 54.890625 33.015625 
L 54.890625 0 
L 45.90625 0 
L 45.90625 32.71875 
Q 45.90625 40.484375 42.875 44.328125 
Q 39.84375 48.1875 33.796875 48.1875 
Q 26.515625 48.1875 22.3125 43.546875 
Q 18.109375 38.921875 18.109375 30.90625 
L 18.109375 0 
L 9.078125 0 
L 9.078125 54.6875 
L 18.109375 54.6875 
L 18.109375 46.1875 
Q 21.34375 51.125 25.703125 53.5625 
Q 30.078125 56 35.796875 56 
Q 45.21875 56 50.046875 50.171875 
Q 54.890625 44.34375 54.890625 33.015625 
z
" id="DejaVuSans-110"/>
      <path d="M 64.40625 67.28125 
L 64.40625 56.890625 
Q 59.421875 61.53125 53.78125 63.8125 
Q 48.140625 66.109375 41.796875 66.109375 
Q 29.296875 66.109375 22.65625 58.46875 
Q 16.015625 50.828125 16.015625 36.375 
Q 16.015625 21.96875 22.65625 14.328125 
Q 29.296875 6.6875 41.796875 6.6875 
Q 48.140625 6.6875 53.78125 8.984375 
Q 59.421875 11.28125 64.40625 15.921875 
L 64.40625 5.609375 
Q 59.234375 2.09375 53.4375 0.328125 
Q 47.65625 -1.421875 41.21875 -1.421875 
Q 24.65625 -1.421875 15.125 8.703125 
Q 5.609375 18.84375 5.609375 36.375 
Q 5.609375 53.953125 15.125 64.078125 
Q 24.65625 74.21875 41.21875 74.21875 
Q 47.75 74.21875 53.53125 72.484375 
Q 59.328125 70.75 64.40625 67.28125 
z
" id="DejaVuSans-67"/>
     </defs>
     <g style="fill:#262626;" transform="translate(213.5 100.424681)scale(0.11 -0.11)">
      <use xlink:href="#DejaVuSans-75"/>
      <use x="65.576172" xlink:href="#DejaVuSans-105"/>
      <use x="93.359375" xlink:href="#DejaVuSans-109"/>
      <use x="190.771484" xlink:href="#DejaVuSans-32"/>
      <use x="222.558594" xlink:href="#DejaVuSans-75"/>
      <use x="288.119141" xlink:href="#DejaVuSans-97"/>
      <use x="349.398438" xlink:href="#DejaVuSans-114"/>
      <use x="390.496094" xlink:href="#DejaVuSans-100"/>
      <use x="453.972656" xlink:href="#DejaVuSans-97"/>
      <use x="515.251953" xlink:href="#DejaVuSans-115"/>
      <use x="567.351562" xlink:href="#DejaVuSans-104"/>
      <use x="630.730469" xlink:href="#DejaVuSans-105"/>
      <use x="658.513672" xlink:href="#DejaVuSans-97"/>
      <use x="719.792969" xlink:href="#DejaVuSans-110"/>
      <use x="783.171875" xlink:href="#DejaVuSans-32"/>
      <use x="814.958984" xlink:href="#DejaVuSans-67"/>
      <use x="884.783203" xlink:href="#DejaVuSans-111"/>
      <use x="945.964844" xlink:href="#DejaVuSans-115"/>
      <use x="998.064453" xlink:href="#DejaVuSans-116"/>
      <use x="1037.273438" xlink:href="#DejaVuSans-117"/>
      <use x="1100.652344" xlink:href="#DejaVuSans-109"/>
      <use x="1198.064453" xlink:href="#DejaVuSans-101"/>
     </g>
    </g>
    <g id="line2d_25">
     <path d="M 182.7 112.720619 
L 204.7 112.720619 
" style="fill:none;stroke:#dd8452;stroke-linecap:round;stroke-width:1.5;"/>
    </g>
    <g id="line2d_26"/>
    <g id="text_18">
     <!-- Taylor Swift Costume -->
     <defs>
      <path d="M -0.296875 72.90625 
L 61.375 72.90625 
L 61.375 64.59375 
L 35.5 64.59375 
L 35.5 0 
L 25.59375 0 
L 25.59375 64.59375 
L -0.296875 64.59375 
z
" id="DejaVuSans-84"/>
      <path d="M 32.171875 -5.078125 
Q 28.375 -14.84375 24.75 -17.8125 
Q 21.140625 -20.796875 15.09375 -20.796875 
L 7.90625 -20.796875 
L 7.90625 -13.28125 
L 13.1875 -13.28125 
Q 16.890625 -13.28125 18.9375 -11.515625 
Q 21 -9.765625 23.484375 -3.21875 
L 25.09375 0.875 
L 2.984375 54.6875 
L 12.5 54.6875 
L 29.59375 11.921875 
L 46.6875 54.6875 
L 56.203125 54.6875 
z
" id="DejaVuSans-121"/>
      <path d="M 9.421875 75.984375 
L 18.40625 75.984375 
L 18.40625 0 
L 9.421875 0 
z
" id="DejaVuSans-108"/>
      <path d="M 4.203125 54.6875 
L 13.1875 54.6875 
L 24.421875 12.015625 
L 35.59375 54.6875 
L 46.1875 54.6875 
L 57.421875 12.015625 
L 68.609375 54.6875 
L 77.59375 54.6875 
L 63.28125 0 
L 52.6875 0 
L 40.921875 44.828125 
L 29.109375 0 
L 18.5 0 
z
" id="DejaVuSans-119"/>
     </defs>
     <g style="fill:#262626;" transform="translate(213.5 116.570619)scale(0.11 -0.11)">
      <use xlink:href="#DejaVuSans-84"/>
      <use x="60.833984" xlink:href="#DejaVuSans-97"/>
      <use x="122.113281" xlink:href="#DejaVuSans-121"/>
      <use x="181.292969" xlink:href="#DejaVuSans-108"/>
      <use x="209.076172" xlink:href="#DejaVuSans-111"/>
      <use x="270.257812" xlink:href="#DejaVuSans-114"/>
      <use x="311.371094" xlink:href="#DejaVuSans-32"/>
      <use x="343.158203" xlink:href="#DejaVuSans-83"/>
      <use x="406.634766" xlink:href="#DejaVuSans-119"/>
      <use x="488.421875" xlink:href="#DejaVuSans-105"/>
      <use x="516.205078" xlink:href="#DejaVuSans-102"/>
      <use x="551.394531" xlink:href="#DejaVuSans-116"/>
      <use x="590.603516" xlink:href="#DejaVuSans-32"/>
      <use x="622.390625" xlink:href="#DejaVuSans-67"/>
      <use x="692.214844" xlink:href="#DejaVuSans-111"/>
      <use x="753.396484" xlink:href="#DejaVuSans-115"/>
      <use x="805.496094" xlink:href="#DejaVuSans-116"/>
      <use x="844.705078" xlink:href="#DejaVuSans-117"/>
      <use x="908.083984" xlink:href="#DejaVuSans-109"/>
      <use x="1005.496094" xlink:href="#DejaVuSans-101"/>
     </g>
    </g>
    <g id="line2d_27">
     <path d="M 182.7 128.866556 
L 204.7 128.866556 
" style="fill:none;stroke:#55a868;stroke-linecap:round;stroke-width:1.5;"/>
    </g>
    <g id="line2d_28"/>
    <g id="text_19">
     <!-- Trump Costume -->
     <g style="fill:#262626;" transform="translate(213.5 132.716556)scale(0.11 -0.11)">
      <use xlink:href="#DejaVuSans-84"/>
      <use x="60.865234" xlink:href="#DejaVuSans-114"/>
      <use x="101.978516" xlink:href="#DejaVuSans-117"/>
      <use x="165.357422" xlink:href="#DejaVuSans-109"/>
      <use x="262.769531" xlink:href="#DejaVuSans-112"/>
      <use x="326.246094" xlink:href="#DejaVuSans-32"/>
      <use x="358.033203" xlink:href="#DejaVuSans-67"/>
      <use x="427.857422" xlink:href="#DejaVuSans-111"/>
      <use x="489.039062" xlink:href="#DejaVuSans-115"/>
      <use x="541.138672" xlink:href="#DejaVuSans-116"/>
      <use x="580.347656" xlink:href="#DejaVuSans-117"/>
      <use x="643.726562" xlink:href="#DejaVuSans-109"/>
      <use x="741.138672" xlink:href="#DejaVuSans-101"/>
     </g>
    </g>
    <g id="line2d_29">
     <path d="M 182.7 145.012494 
L 204.7 145.012494 
" style="fill:none;stroke:#c44e52;stroke-linecap:round;stroke-width:1.5;"/>
    </g>
    <g id="line2d_30"/>
    <g id="text_20">
     <!-- Joker Costume -->
     <defs>
      <path d="M 9.8125 72.90625 
L 19.671875 72.90625 
L 19.671875 5.078125 
Q 19.671875 -8.109375 14.671875 -14.0625 
Q 9.671875 -20.015625 -1.421875 -20.015625 
L -5.171875 -20.015625 
L -5.171875 -11.71875 
L -2.09375 -11.71875 
Q 4.4375 -11.71875 7.125 -8.046875 
Q 9.8125 -4.390625 9.8125 5.078125 
z
" id="DejaVuSans-74"/>
      <path d="M 9.078125 75.984375 
L 18.109375 75.984375 
L 18.109375 31.109375 
L 44.921875 54.6875 
L 56.390625 54.6875 
L 27.390625 29.109375 
L 57.625 0 
L 45.90625 0 
L 18.109375 26.703125 
L 18.109375 0 
L 9.078125 0 
z
" id="DejaVuSans-107"/>
     </defs>
     <g style="fill:#262626;" transform="translate(213.5 148.862494)scale(0.11 -0.11)">
      <use xlink:href="#DejaVuSans-74"/>
      <use x="29.492188" xlink:href="#DejaVuSans-111"/>
      <use x="90.673828" xlink:href="#DejaVuSans-107"/>
      <use x="148.537109" xlink:href="#DejaVuSans-101"/>
      <use x="210.060547" xlink:href="#DejaVuSans-114"/>
      <use x="251.173828" xlink:href="#DejaVuSans-32"/>
      <use x="282.960938" xlink:href="#DejaVuSans-67"/>
      <use x="352.785156" xlink:href="#DejaVuSans-111"/>
      <use x="413.966797" xlink:href="#DejaVuSans-115"/>
      <use x="466.066406" xlink:href="#DejaVuSans-116"/>
      <use x="505.275391" xlink:href="#DejaVuSans-117"/>
      <use x="568.654297" xlink:href="#DejaVuSans-109"/>
      <use x="666.066406" xlink:href="#DejaVuSans-101"/>
     </g>
    </g>
    <g id="line2d_31">
     <path d="M 182.7 161.158431 
L 204.7 161.158431 
" style="fill:none;stroke:#8172b3;stroke-linecap:round;stroke-width:1.5;"/>
    </g>
    <g id="line2d_32"/>
    <g id="text_21">
     <!-- Ghost Costume -->
     <defs>
      <path d="M 59.515625 10.40625 
L 59.515625 29.984375 
L 43.40625 29.984375 
L 43.40625 38.09375 
L 69.28125 38.09375 
L 69.28125 6.78125 
Q 63.578125 2.734375 56.6875 0.65625 
Q 49.8125 -1.421875 42 -1.421875 
Q 24.90625 -1.421875 15.25 8.5625 
Q 5.609375 18.5625 5.609375 36.375 
Q 5.609375 54.25 15.25 64.234375 
Q 24.90625 74.21875 42 74.21875 
Q 49.125 74.21875 55.546875 72.453125 
Q 61.96875 70.703125 67.390625 67.28125 
L 67.390625 56.78125 
Q 61.921875 61.421875 55.765625 63.765625 
Q 49.609375 66.109375 42.828125 66.109375 
Q 29.4375 66.109375 22.71875 58.640625 
Q 16.015625 51.171875 16.015625 36.375 
Q 16.015625 21.625 22.71875 14.15625 
Q 29.4375 6.6875 42.828125 6.6875 
Q 48.046875 6.6875 52.140625 7.59375 
Q 56.25 8.5 59.515625 10.40625 
z
" id="DejaVuSans-71"/>
     </defs>
     <g style="fill:#262626;" transform="translate(213.5 165.008431)scale(0.11 -0.11)">
      <use xlink:href="#DejaVuSans-71"/>
      <use x="77.490234" xlink:href="#DejaVuSans-104"/>
      <use x="140.869141" xlink:href="#DejaVuSans-111"/>
      <use x="202.050781" xlink:href="#DejaVuSans-115"/>
      <use x="254.150391" xlink:href="#DejaVuSans-116"/>
      <use x="293.359375" xlink:href="#DejaVuSans-32"/>
      <use x="325.146484" xlink:href="#DejaVuSans-67"/>
      <use x="394.970703" xlink:href="#DejaVuSans-111"/>
      <use x="456.152344" xlink:href="#DejaVuSans-115"/>
      <use x="508.251953" xlink:href="#DejaVuSans-116"/>
      <use x="547.460938" xlink:href="#DejaVuSans-117"/>
      <use x="610.839844" xlink:href="#DejaVuSans-109"/>
      <use x="708.251953" xlink:href="#DejaVuSans-101"/>
     </g>
    </g>
    <g id="line2d_33">
     <path d="M 182.7 177.304369 
L 204.7 177.304369 
" style="fill:none;stroke:#937860;stroke-linecap:round;stroke-width:1.5;"/>
    </g>
    <g id="line2d_34"/>
    <g id="text_22">
     <!-- Woody Costume -->
     <defs>
      <path d="M 3.328125 72.90625 
L 13.28125 72.90625 
L 28.609375 11.28125 
L 43.890625 72.90625 
L 54.984375 72.90625 
L 70.3125 11.28125 
L 85.59375 72.90625 
L 95.609375 72.90625 
L 77.296875 0 
L 64.890625 0 
L 49.515625 63.28125 
L 33.984375 0 
L 21.578125 0 
z
" id="DejaVuSans-87"/>
     </defs>
     <g style="fill:#262626;" transform="translate(213.5 181.154369)scale(0.11 -0.11)">
      <use xlink:href="#DejaVuSans-87"/>
      <use x="98.798828" xlink:href="#DejaVuSans-111"/>
      <use x="159.980469" xlink:href="#DejaVuSans-111"/>
      <use x="221.162109" xlink:href="#DejaVuSans-100"/>
      <use x="284.638672" xlink:href="#DejaVuSans-121"/>
      <use x="343.818359" xlink:href="#DejaVuSans-32"/>
      <use x="375.605469" xlink:href="#DejaVuSans-67"/>
      <use x="445.429688" xlink:href="#DejaVuSans-111"/>
      <use x="506.611328" xlink:href="#DejaVuSans-115"/>
      <use x="558.710938" xlink:href="#DejaVuSans-116"/>
      <use x="597.919922" xlink:href="#DejaVuSans-117"/>
      <use x="661.298828" xlink:href="#DejaVuSans-109"/>
      <use x="758.710938" xlink:href="#DejaVuSans-101"/>
     </g>
    </g>
    <g id="line2d_35">
     <path d="M 182.7 193.450306 
L 204.7 193.450306 
" style="fill:none;stroke:#da8bc3;stroke-linecap:round;stroke-width:1.5;"/>
    </g>
    <g id="line2d_36"/>
    <g id="text_23">
     <!-- Iron Man Costume -->
     <defs>
      <path d="M 9.8125 72.90625 
L 19.671875 72.90625 
L 19.671875 0 
L 9.8125 0 
z
" id="DejaVuSans-73"/>
      <path d="M 9.8125 72.90625 
L 24.515625 72.90625 
L 43.109375 23.296875 
L 61.8125 72.90625 
L 76.515625 72.90625 
L 76.515625 0 
L 66.890625 0 
L 66.890625 64.015625 
L 48.09375 14.015625 
L 38.1875 14.015625 
L 19.390625 64.015625 
L 19.390625 0 
L 9.8125 0 
z
" id="DejaVuSans-77"/>
     </defs>
     <g style="fill:#262626;" transform="translate(213.5 197.300306)scale(0.11 -0.11)">
      <use xlink:href="#DejaVuSans-73"/>
      <use x="29.492188" xlink:href="#DejaVuSans-114"/>
      <use x="70.574219" xlink:href="#DejaVuSans-111"/>
      <use x="131.755859" xlink:href="#DejaVuSans-110"/>
      <use x="195.134766" xlink:href="#DejaVuSans-32"/>
      <use x="226.921875" xlink:href="#DejaVuSans-77"/>
      <use x="313.201172" xlink:href="#DejaVuSans-97"/>
      <use x="374.480469" xlink:href="#DejaVuSans-110"/>
      <use x="437.859375" xlink:href="#DejaVuSans-32"/>
      <use x="469.646484" xlink:href="#DejaVuSans-67"/>
      <use x="539.470703" xlink:href="#DejaVuSans-111"/>
      <use x="600.652344" xlink:href="#DejaVuSans-115"/>
      <use x="652.751953" xlink:href="#DejaVuSans-116"/>
      <use x="691.960938" xlink:href="#DejaVuSans-117"/>
      <use x="755.339844" xlink:href="#DejaVuSans-109"/>
      <use x="852.751953" xlink:href="#DejaVuSans-101"/>
     </g>
    </g>
    <g id="line2d_37">
     <path d="M 182.7 209.596244 
L 204.7 209.596244 
" style="fill:none;stroke:#8c8c8c;stroke-linecap:round;stroke-width:1.5;"/>
    </g>
    <g id="line2d_38"/>
    <g id="text_24">
     <!-- Spiderman Costume -->
     <g style="fill:#262626;" transform="translate(213.5 213.446244)scale(0.11 -0.11)">
      <use xlink:href="#DejaVuSans-83"/>
      <use x="63.476562" xlink:href="#DejaVuSans-112"/>
      <use x="126.953125" xlink:href="#DejaVuSans-105"/>
      <use x="154.736328" xlink:href="#DejaVuSans-100"/>
      <use x="218.212891" xlink:href="#DejaVuSans-101"/>
      <use x="279.736328" xlink:href="#DejaVuSans-114"/>
      <use x="320.833984" xlink:href="#DejaVuSans-109"/>
      <use x="418.246094" xlink:href="#DejaVuSans-97"/>
      <use x="479.525391" xlink:href="#DejaVuSans-110"/>
      <use x="542.904297" xlink:href="#DejaVuSans-32"/>
      <use x="574.691406" xlink:href="#DejaVuSans-67"/>
      <use x="644.515625" xlink:href="#DejaVuSans-111"/>
      <use x="705.697266" xlink:href="#DejaVuSans-115"/>
      <use x="757.796875" xlink:href="#DejaVuSans-116"/>
      <use x="797.005859" xlink:href="#DejaVuSans-117"/>
      <use x="860.384766" xlink:href="#DejaVuSans-109"/>
      <use x="957.796875" xlink:href="#DejaVuSans-101"/>
     </g>
    </g>
   </g>
  </g>
 </g>
 <defs>
  <clipPath id="p5dae63c579">
   <rect height="527.2344" width="1071.36" x="172.8" y="82.1664"/>
  </clipPath>
 </defs>
</svg>
